{"asset":{"version":"2.0","generator":"Blockbench 4.12.4 glTF exporter"},"scenes":[{"nodes":[5],"name":"blockbench_export"}],"scene":0,"nodes":[{"rotation":[0,0,-1,6.123233995736766e-17],"name":"pyramid","mesh":0},{"name":"pyramid","mesh":1},{"translation":[0,0.25,0],"name":"Head","children":[0,1]},{"rotation":[0,0,-1,6.123233995736766e-17],"name":"Body","mesh":2},{"translation":[0,0.5,0],"name":"Body","children":[2,3]},{"children":[4]}],"bufferViews":[{"buffer":0,"byteOffset":0,"byteLength":192,"target":34962,"byteStride":12},{"buffer":0,"byteOffset":192,"byteLength":192,"target":34962,"byteStride":12},{"buffer":0,"byteOffset":384,"byteLength":128,"target":34962,"byteStride":8},{"buffer":0,"byteOffset":512,"byteLength":36,"target":34963},{"buffer":0,"byteOffset":548,"byteLength":192,"target":34962,"byteStride":12},{"buffer":0,"byteOffset":740,"byteLength":192,"target":34962,"byteStride":12},{"buffer":0,"byteOffset":932,"byteLength":128,"target":34962,"byteStride":8},{"buffer":0,"byteOffset":1060,"byteLength":36,"target":34963},{"buffer":0,"byteOffset":1096,"byteLength":192,"target":34962,"byteStride":12},{"buffer":0,"byteOffset":1288,"byteLength":192,"target":34962,"byteStride":12},{"buffer":0,"byteOffset":1480,"byteLength":128,"target":34962,"byteStride":8},{"buffer":0,"byteOffset":1608,"byteLength":36,"target":34963}],"buffers":[{"byteLength":1644,"uri":"data:application/octet-stream;base64,"}],"accessors":[{"bufferView":0,"componentType":5126,"count":16,"max":[0.5,0.5,0.40625],"min":[-0.5,0,-0.40625],"type":"VEC3"},{"bufferView":1,"componentType":5126,"count":16,"max":[0.7071067690849304,0.7071067690849304,0.7761139869689941],"min":[-0.7071067690849304,-1,-0.7761139869689941],"type":"VEC3"},{"bufferView":2,"componentType":5126,"count":16,"max":[0.6505634188652039,0.6413761377334595],"min":[0,0],"type":"VEC2"},{"bufferView":3,"componentType":5123,"count":18,"max":[15],"min":[0],"type":"SCALAR"},{"bufferView":4,"componentType":5126,"count":16,"max":[0.5,0.5,0.40625],"min":[-0.5,0,-0.40625],"type":"VEC3"},{"bufferView":5,"componentType":5126,"count":16,"max":[0.7071067690849304,0.7071067690849304,0.7761139869689941],"min":[-0.7071067690849304,-1,-0.7761139869689941],"type":"VEC3"},{"bufferView":6,"componentType":5126,"count":16,"max":[0.7599384188652039,0.7195011377334595],"min":[0,0.21875],"type":"VEC2"},{"bufferView":7,"componentType":5123,"count":18,"max":[15],"min":[0],"type":"SCALAR"},{"bufferView":8,"componentType":5126,"count":16,"max":[0.5,0.5,0.40625],"min":[-0.5,0,-0.40625],"type":"VEC3"},{"bufferView":9,"componentType":5126,"count":16,"max":[0.7071067690849304,0.7071067690849304,0.7761139869689941],"min":[-0.7071067690849304,-1,-0.7761139869689941],"type":"VEC3"},{"bufferView":10,"componentType":5126,"count":16,"max":[0.515625,0.5788761377334595],"min":[0,0],"type":"VEC2"},{"bufferView":11,"componentType":5123,"count":18,"max":[15],"min":[0],"type":"SCALAR"}],"materials":[{"pbrMetallicRoughness":{"metallicFactor":0,"roughnessFactor":1,"baseColorTexture":{"index":0}},"alphaMode":"MASK","alphaCutoff":0.05,"doubleSided":true},{"pbrMetallicRoughness":{"metallicFactor":0,"roughnessFactor":1,"baseColorTexture":{"index":1}},"alphaMode":"MASK","alphaCutoff":0.05,"doubleSided":true}],"textures":[{"sampler":0,"source":0,"name":"head_tired.png"},{"sampler":1,"source":1,"name":"body.png"}],"samplers":[{"magFilter":9728,"minFilter":9728,"wrapS":33071,"wrapT":33071},{"magFilter":9728,"minFilter":9728,"wrapS":33071,"wrapT":33071}],"images":[{"mimeType":"image/png","uri":"data:image/png;base64,"},{"mimeType":"image/png","uri":"data:image/png;base64,"}],"meshes":[{"primitives":[{"mode":4,"attributes":{"POSITION":0,"NORMAL":1,"TEXCOORD_0":2},"indices":3,"material":0}]},{"primitives":[{"mode":4,"attributes":{"POSITION":4,"NORMAL":5,"TEXCOORD_0":6},"indices":7,"material":0}]},{"primitives":[{"mode":4,"attributes":{"POSITION":8,"NORMAL":9,"TEXCOORD_0":10},"indices":11,"material":1}]}]}